<svg width="24" height="24" viewBox="0 0 24 24" fill="currentColor" xmlns="http://www.w3.org/2000/svg" id="login-icon">
    <path d="M11.75 0C9.42607 0 7.15433 0.689125 5.22205 1.98023C3.28978 3.27134 1.78375 5.10644 0.894421 7.25347C0.00509113 9.4005 -0.227598 11.763 0.225778 14.0423C0.679155 16.3216 1.79823 18.4152 3.4415 20.0585C5.08477 21.7018 7.17842 22.8209 9.45769 23.2742C11.737 23.7276 14.0995 23.4949 16.2465 22.6056C18.3936 21.7163 20.2287 20.2102 21.5198 18.278C22.8109 16.3457 23.5 14.0739 23.5 11.75C23.4974 8.63452 22.2586 5.6474 20.0556 3.44442C17.8526 1.24144 14.8655 0.00264809 11.75 0V0ZM1.50001 11.75C1.49687 10.1229 1.88112 8.51849 2.62098 7.06936C3.36084 5.62023 4.43505 4.36806 5.75478 3.41639C7.07451 2.46471 8.60183 1.84089 10.2104 1.59651C11.8191 1.35212 13.4627 1.4942 15.0056 2.01098C16.5484 2.52777 17.946 3.40442 19.0829 4.56843C20.2197 5.73244 21.0631 7.15037 21.5434 8.70496C22.0236 10.2596 22.1268 11.9061 21.8445 13.5085C21.5623 15.1109 20.9026 16.6231 19.92 17.92C19.5992 16.5836 18.9569 15.3458 18.049 14.3141C17.141 13.2824 15.9948 12.488 14.71 12C15.5292 11.3922 16.1359 10.5415 16.4438 9.56905C16.7517 8.59656 16.7451 7.55176 16.425 6.58322C16.105 5.61467 15.4877 4.77171 14.6609 4.17421C13.8342 3.5767 12.8401 3.25508 11.82 3.25508C10.7999 3.25508 9.80585 3.5767 8.9791 4.17421C8.15235 4.77171 7.53504 5.61467 7.21496 6.58322C6.89488 7.55176 6.88833 8.59656 7.19623 9.56905C7.50413 10.5415 8.11082 11.3922 8.93001 12C7.62059 12.4948 6.45499 13.3079 5.53842 14.3659C4.62186 15.4239 3.98317 16.6934 3.68001 18.06C2.26541 16.2611 1.49751 14.0385 1.50001 11.75ZM11.83 11.47C11.167 11.472 10.5183 11.2772 9.96613 10.9103C9.41391 10.5434 8.98298 10.0209 8.72789 9.40893C8.4728 8.79698 8.40503 8.12309 8.53316 7.4726C8.66129 6.82211 8.97955 6.22426 9.44766 5.75475C9.91576 5.28524 10.5127 4.96519 11.1628 4.83512C11.8129 4.70505 12.487 4.7708 13.0997 5.02406C13.7124 5.27732 14.2362 5.70669 14.6047 6.2578C14.9733 6.80892 15.17 7.45701 15.17 8.12C15.17 9.00675 14.8184 9.85732 14.1924 10.4853C13.5663 11.1132 12.7167 11.4674 11.83 11.47ZM5.00001 19.4L5.13001 18.69C5.43277 17.1021 6.2889 15.6731 7.54614 14.6571C8.80338 13.6411 10.3802 13.1039 11.9963 13.1411C13.6123 13.1783 15.1628 13.7874 16.372 14.8602C17.5811 15.933 18.3706 17.3999 18.6 19V19.29C16.7445 20.9799 14.3307 21.9256 11.821 21.9459C9.31143 21.9662 6.88259 21.0597 5.00001 19.4Z" fill="currentColor"/>
</svg>
