<svg width="23" height="21" viewBox="0 0 23 21" fill="currentColor" xmlns="http://www.w3.org/2000/svg" id="basket-icon">
    <path d="M21.61 6.4C21.4443 6.20318 21.2377 6.04486 21.0045 5.93605C20.7714 5.82725 20.5173 5.77058 20.26 5.77H16.86V4.7C16.8574 3.45429 16.3613 2.26037 15.4805 1.37952C14.5996 0.498668 13.4057 0.00264201 12.16 0L9.86 0C8.6143 0.00264201 7.42037 0.498668 6.53952 1.37952C5.65867 2.26037 5.16265 3.45429 5.16001 4.7V5.77H1.75001C1.49115 5.76742 1.23492 5.82197 0.999572 5.92977C0.764221 6.03757 0.555546 6.19595 0.388421 6.39364C0.221296 6.59132 0.0998358 6.82344 0.0326978 7.07344C-0.0344402 7.32345 -0.045603 7.58519 5.06081e-06 7.84L1.70001 17C1.86936 18.0144 2.39586 18.9348 3.18442 19.595C3.97299 20.2552 4.97163 20.6117 6.00001 20.6H16.09C17.1092 20.6014 18.0956 20.2399 18.8725 19.5802C19.6494 18.9206 20.1661 18.0059 20.33 17L22 7.83C22.0429 7.57762 22.0302 7.31892 21.9629 7.07194C21.8955 6.82496 21.7751 6.59565 21.61 6.4ZM6.66001 4.7C6.66001 3.85131 6.99715 3.03737 7.59726 2.43726C8.19738 1.83714 9.01131 1.5 9.86 1.5H12.16C13.0079 1.50264 13.8203 1.84063 14.4198 2.44017C15.0194 3.03972 15.3574 3.85212 15.36 4.7V5.77H6.66001V4.7ZM18.86 16.77C18.7469 17.4225 18.4069 18.0141 17.9001 18.4404C17.3933 18.8667 16.7523 19.1003 16.09 19.1H6.00001C5.33776 19.1003 4.69668 18.8667 4.18988 18.4404C3.68308 18.0141 3.34313 17.4225 3.23001 16.77L1.50001 7.57C1.49187 7.49486 1.5134 7.41951 1.56 7.36C1.58366 7.3326 1.61278 7.31044 1.6455 7.29494C1.67822 7.27944 1.71381 7.27095 1.75001 7.27H20.26C20.3359 7.27266 20.4077 7.30498 20.46 7.36C20.5022 7.42137 20.52 7.49622 20.51 7.57L18.86 16.77Z" fill="currentColor"/>
</svg>