<svg width="20" height="20" viewBox="0 0 20 20" fill="none" xmlns="http://www.w3.org/2000/svg">
    <path fill-rule="evenodd" clip-rule="evenodd" d="M16.1339 6.18964C16.0002 7.84109 14.553 9.07146 12.9016 8.93775C11.2501 8.80403 10.0197 7.35687 10.1534 5.70543C10.2872 4.05398 11.7343 2.8236 13.3858 2.95732C15.0372 3.09103 16.2676 4.53819 16.1339 6.18964ZM14.8332 10.6547C14.183 10.8885 13.4737 10.9906 12.7401 10.9312C9.98773 10.7084 7.93712 8.29644 8.15997 5.54402C8.38282 2.7916 10.7948 0.740987 13.5472 0.963839C16.2996 1.18669 18.3502 3.59862 18.1273 6.35104C18.0222 7.64998 17.4295 8.79262 16.5435 9.61377L19.7653 14.3847C20.0743 14.8424 19.9539 15.464 19.4962 15.773C19.0385 16.0821 18.4169 15.9616 18.1078 15.5039L14.8332 10.6547ZM0 8.00174C0 7.44945 0.447715 7.00174 1 7.00174H5C5.55228 7.00174 6 7.44945 6 8.00174C6 8.55402 5.55228 9.00174 5 9.00174H1C0.447715 9.00174 0 8.55402 0 8.00174ZM1 2.00174C0.447715 2.00174 0 2.44945 0 3.00174C0 3.55402 0.447715 4.00174 1 4.00174H5C5.55228 4.00174 6 3.55402 6 3.00174C6 2.44945 5.55228 2.00174 5 2.00174H1ZM0 13.0017C0 12.4495 0.447715 12.0017 1 12.0017H9C9.55229 12.0017 10 12.4495 10 13.0017C10 13.554 9.55229 14.0017 9 14.0017H1C0.447715 14.0017 0 13.554 0 13.0017ZM1 17.0017C0.447715 17.0017 0 17.4495 0 18.0017C0 18.554 0.447715 19.0017 1 19.0017H17C17.5523 19.0017 18 18.554 18 18.0017C18 17.4495 17.5523 17.0017 17 17.0017H1Z" fill="#A0A9C3"></path>
</svg>