<svg width="23" height="24" viewBox="0 0 23 24" fill="currentColor" xmlns="http://www.w3.org/2000/svg" id="package-icon">
    <path d="M22.2 5.65C22.2 5.45 22.1 5.25 21.9 5.15L12.5 0.15C12.1 -0.05 11.6 -0.05 11.2 0.15L0.4 5.05C0.3 5.05 0 5.35 0 5.65V16.85C0 17.35 0.3 17.85 0.7 18.05L9.7 23.05C9.8 23.15 9.9 23.15 10 23.15C10.1 23.15 10.2 23.15 10.3 23.05L21.3 18.05C21.8 17.85 22.2 17.25 22.1 16.75C22.2 16.75 22.2 5.65 22.2 5.65ZM10.1 10.05L6.5 8.05L16.1 3.65L19.8 5.65L10.1 10.05ZM11.8 1.35L14.5 2.75L4.9 7.15L2.4 5.75L11.8 1.35ZM1.5 6.95L3.9 8.25V11.45C3.9 11.85 4.2 12.15 4.6 12.15C5 12.15 5.3 11.85 5.3 11.35V9.15L9.2 11.35V21.15L1.4 16.85L1.5 6.95ZM10.8 21.15V11.35L20.7 6.85V16.65L10.8 21.15Z" fill="currentColor"/>
</svg>
