<svg width="23" height="22" viewBox="0 0 23 22" fill="none" xmlns="http://www.w3.org/2000/svg">
<path d="M8.29108 16.5822C6.65126 16.5822 5.04827 16.0959 3.68481 15.1849C2.32135 14.2738 1.25866 12.9789 0.631125 11.4639C0.00359243 9.94895 -0.160599 8.28189 0.159315 6.67357C0.479228 5.06526 1.26888 3.58793 2.42841 2.42841C3.58793 1.26888 5.06526 0.479228 6.67357 0.159315C8.28189 -0.160599 9.94895 0.00359239 11.4639 0.631125C12.9789 1.25866 14.2738 2.32135 15.1849 3.68481C16.0959 5.04827 16.5822 6.65126 16.5822 8.29108C16.5787 10.489 15.7041 12.5958 14.15 14.15C12.5958 15.7041 10.489 16.5787 8.29108 16.5822ZM8.29108 2.07277C7.06434 2.07534 5.86587 2.44145 4.84711 3.12486C3.82835 3.80826 3.03501 4.7783 2.56733 5.91241C2.09965 7.04651 1.97861 8.29379 2.2195 9.49666C2.4604 10.6995 3.05242 11.804 3.92077 12.6705C4.78912 13.5371 5.89482 14.1268 7.09819 14.3652C8.30156 14.6036 9.54858 14.4799 10.6817 14.0099C11.8148 13.5398 12.7832 12.7445 13.4645 11.7243C14.1458 10.7041 14.5094 9.50488 14.5094 8.27813C14.506 6.63118 13.8493 5.05285 12.6835 3.88949C11.5177 2.72613 9.93804 2.07277 8.29108 2.07277Z" fill="white"/>
<path fill-rule="evenodd" clip-rule="evenodd" d="M21.7126 18.3186L16.7769 13.3828L13.6807 16.479L18.6164 21.4148C18.8983 21.747 19.2995 21.955 19.7334 21.9938C20.1673 22.0326 20.5991 21.8991 20.9354 21.6221L21.9199 20.6375C22.1969 20.3012 22.3305 19.8695 22.2917 19.4356C22.2529 19.0016 22.0449 18.6004 21.7126 18.3186Z" fill="white"/>
</svg>
